<?xml version="1.0" standalone="no"?>
<!DOCTYPE svg PUBLIC "-//W3C//DTD SVG 20010904//EN"
 "http://www.w3.org/TR/2001/REC-SVG-20010904/DTD/svg10.dtd">
<svg version="1.0" xmlns="http://www.w3.org/2000/svg"
 width="1000.000000pt" height="1280.000000pt" viewBox="0 0 1000.000000 1280.000000"
 preserveAspectRatio="xMidYMid meet">
<metadata>
Created by potrace 1.15, written by Peter Selinger 2001-2017
</metadata>
<g transform="translate(0.000000,1280.000000) scale(0.100000,-0.100000)"
fill="#3f51b5" stroke="none">
<path d="M4000 12794 c0 -3 20 -72 44 -152 24 -81 90 -302 146 -492 56 -190
121 -408 145 -485 24 -77 51 -167 60 -200 34 -125 138 -475 180 -605 23 -74
57 -189 74 -255 48 -180 61 -223 91 -300 27 -67 161 -522 220 -745 15 -58 40
-145 55 -195 15 -49 31 -107 36 -128 5 -21 13 -45 18 -55 28 -52 98 -268 133
-407 21 -88 50 -197 64 -243 14 -45 22 -86 20 -91 -3 -5 -22 -12 -41 -15 -79
-15 -337 -107 -449 -160 -66 -31 -125 -55 -132 -52 -12 4 -82 86 -244 282
-259 313 -499 601 -923 1110 -115 137 -232 278 -262 314 -30 36 -125 150 -212
253 -87 104 -194 232 -238 286 -44 54 -97 118 -119 144 -45 55 -42 64 35 103
26 13 54 33 63 45 l15 22 27 -22 c39 -30 71 -26 138 18 130 87 197 210 161
297 -32 77 -89 114 -176 114 -54 0 -168 -61 -223 -120 -39 -42 -46 -55 -46
-90 0 -22 -5 -40 -11 -40 -6 0 -38 -25 -72 -55 -33 -30 -68 -55 -76 -55 -9 0
-61 45 -115 99 l-99 99 31 16 c17 9 35 24 40 33 9 14 14 15 41 3 42 -17 57 -9
162 80 115 99 141 158 99 227 -26 44 -84 61 -142 43 -49 -14 -189 -83 -231
-113 -23 -16 -28 -26 -25 -49 4 -21 0 -31 -11 -35 -9 -3 -40 -24 -69 -46 l-52
-40 -39 27 c-40 28 -87 74 -80 78 2 2 17 10 34 18 41 21 42 43 4 91 l-32 40
43 44 c42 43 43 45 32 82 -6 21 -16 55 -22 75 -12 40 -60 88 -88 88 -9 0 -30
-11 -47 -24 l-30 -24 -49 25 c-38 19 -58 24 -88 19 -37 -6 -44 -3 -111 53 -97
79 -113 87 -140 67 -12 -9 -50 -35 -85 -58 -34 -23 -62 -47 -62 -53 0 -5 9
-23 20 -40 11 -16 20 -36 20 -42 0 -24 -16 -13 -33 22 -19 40 -42 48 -33 11 3
-13 24 -56 46 -95 22 -39 40 -73 40 -76 0 -4 -12 -22 -27 -41 -24 -33 -25 -38
-15 -82 11 -47 11 -47 -29 -87 -21 -23 -39 -49 -39 -59 0 -32 42 -87 89 -117
53 -34 73 -36 116 -9 l33 20 33 -42 c50 -64 59 -69 91 -52 15 8 38 14 52 14
47 0 95 -102 61 -130 -22 -18 -18 -51 10 -92 22 -33 30 -37 72 -40 l48 -3 -61
-40 c-63 -41 -107 -68 -154 -95 -14 -9 -47 -38 -73 -65 -46 -48 -57 -62 -37
-50 15 9 12 -11 -2 -22 -15 -11 -63 -29 -100 -37 -45 -10 -88 -62 -88 -106 0
-65 71 -122 133 -106 12 3 51 29 85 58 35 28 91 66 125 83 39 20 67 42 75 58
7 15 17 27 22 27 5 0 37 25 71 55 34 30 67 55 75 55 7 0 34 -30 61 -66 26 -36
72 -95 101 -131 77 -95 78 -97 39 -122 -17 -11 -66 -43 -107 -71 -63 -43 -78
-50 -93 -40 -16 9 -34 1 -115 -54 -133 -88 -192 -156 -192 -220 0 -40 44 -113
80 -131 66 -34 123 -14 262 90 84 63 105 90 99 128 -1 11 4 17 17 17 10 0 29
12 43 26 13 14 52 48 86 76 l63 50 101 -94 c60 -55 130 -133 172 -192 66 -90
107 -149 282 -404 33 -48 120 -172 194 -277 74 -104 156 -221 183 -260 27 -38
99 -140 160 -225 192 -267 374 -528 505 -723 l126 -187 -65 -68 c-145 -151
-280 -343 -378 -537 l-65 -130 -70 -23 c-154 -50 -299 -73 -506 -79 -242 -7
-249 -6 -249 47 0 22 -11 69 -25 106 -46 122 -118 197 -290 304 -108 66 -141
99 -173 168 -13 29 -29 51 -35 49 -13 -4 -12 -93 2 -167 5 -25 17 -99 26 -165
9 -66 21 -136 26 -156 10 -42 12 -109 2 -109 -3 0 -64 16 -134 35 -212 59
-439 139 -624 222 -119 53 -581 289 -651 332 l-81 50 -6 173 c-8 228 -46 468
-83 526 -33 50 -88 14 -133 -89 -23 -51 -67 -222 -76 -294 -11 -86 -16 -105
-29 -105 -7 0 -76 43 -155 95 -79 52 -147 93 -152 89 -31 -19 -2 -46 187 -172
80 -53 124 -89 128 -104 3 -13 9 -91 12 -175 l7 -151 -33 -20 c-18 -11 -40
-18 -49 -14 -9 3 -77 41 -152 84 -75 43 -141 78 -148 78 -6 0 -11 -8 -11 -17
0 -19 91 -82 213 -149 l69 -37 -84 -86 c-46 -47 -101 -112 -121 -143 -21 -32
-40 -58 -42 -58 -3 0 -28 11 -56 25 -45 23 -50 24 -56 8 -5 -12 2 -23 22 -37
74 -55 70 -47 57 -118 -7 -36 -12 -118 -12 -182 0 -88 -3 -116 -12 -115 -49 6
-51 -21 -4 -50 27 -17 42 -40 76 -121 51 -122 99 -191 198 -292 48 -49 70 -78
60 -78 -9 0 -92 27 -183 60 -91 33 -173 60 -181 60 -9 0 -14 -7 -12 -17 4 -20
43 -35 424 -163 l271 -91 27 -117 c37 -157 43 -246 19 -292 -15 -29 -29 -38
-75 -53 -48 -16 -64 -17 -110 -8 -62 13 -118 44 -118 66 0 10 14 17 40 21 60
10 94 54 87 112 -9 84 -113 192 -184 192 -45 0 -89 -26 -104 -62 -6 -16 -11
-52 -10 -80 2 -108 78 -206 209 -270 56 -28 77 -33 141 -33 183 0 222 82 166
350 -14 66 -25 125 -25 132 0 20 29 16 198 -26 350 -88 638 -141 993 -181 224
-25 301 -30 514 -30 217 0 525 18 635 36 202 34 464 93 546 124 25 10 26 12
12 26 -14 14 -18 14 -39 1 -52 -33 -321 -92 -581 -127 -196 -27 -540 -36 -803
-21 -234 12 -515 47 -533 65 -7 7 -19 59 -27 117 -9 57 -18 114 -20 126 -9 38
19 43 150 22 393 -62 419 -64 810 -64 398 0 493 8 784 69 111 23 114 23 132 5
24 -24 32 -24 21 -1 -5 9 -7 23 -5 30 3 8 -8 28 -25 45 -35 37 -106 182 -99
201 5 12 66 31 74 23 1 -2 7 -24 12 -48 35 -162 132 -364 255 -529 100 -135
216 -246 425 -404 202 -154 287 -239 313 -315 l16 -50 -187 -99 c-177 -94
-353 -176 -395 -184 -21 -4 -27 6 -51 82 -9 30 -20 64 -25 75 -5 11 -16 44
-25 73 -10 32 -22 52 -32 52 -8 0 -142 -66 -296 -147 -155 -81 -311 -162 -347
-179 -109 -54 -106 -48 -80 -133 13 -46 18 -77 12 -83 -23 -23 -484 -97 -832
-135 -137 -15 -258 -18 -710 -18 -372 0 -551 3 -563 11 -11 6 -31 49 -48 100
-38 112 -159 318 -200 339 -43 23 -53 19 -107 -40 -60 -65 -82 -122 -88 -230
-8 -124 -8 -125 -53 -125 -22 0 -99 9 -173 20 -73 11 -152 20 -175 20 -46 0
-58 -14 -20 -23 23 -6 262 -41 359 -52 64 -8 70 -13 88 -70 7 -22 24 -67 37
-100 l25 -59 -33 -30 -32 -29 -106 7 c-58 4 -148 12 -199 18 -68 7 -97 7 -105
-1 -6 -6 -8 -13 -6 -16 3 -2 80 -13 172 -23 92 -11 170 -22 173 -25 4 -3 -21
-37 -55 -74 -34 -37 -81 -96 -104 -131 l-42 -63 -55 6 c-51 5 -93 -6 -78 -20
4 -4 31 -10 60 -14 l53 -6 7 -79 c4 -44 14 -97 23 -118 20 -52 19 -78 -3 -78
-10 0 -22 -3 -25 -7 -12 -11 15 -33 42 -33 31 0 52 -14 156 -98 80 -65 169
-116 239 -137 81 -24 50 -32 -156 -41 -123 -6 -203 -13 -203 -19 0 -16 139
-18 468 -5 l309 12 23 -22 c34 -32 115 -196 115 -233 0 -50 -32 -92 -95 -122
-66 -33 -179 -45 -208 -23 -16 12 -14 16 35 48 46 30 53 40 56 71 6 69 -74
128 -176 129 -99 0 -152 -40 -152 -115 0 -77 61 -134 179 -169 104 -30 231
-14 334 42 106 57 113 122 32 277 -30 58 -55 108 -55 110 0 11 79 25 195 35
446 38 1020 143 1475 268 l175 49 28 -24 c34 -27 98 -31 153 -8 19 8 66 46
104 85 38 38 70 70 72 70 15 0 334 123 453 175 139 60 432 206 579 289 61 34
117 61 123 59 7 -3 188 121 404 273 350 248 394 276 403 260 6 -10 23 -35 39
-55 106 -140 221 -361 262 -505 41 -144 55 -120 -187 -326 -241 -206 -477
-400 -612 -504 -237 -181 -900 -596 -954 -596 -4 0 -34 51 -66 113 -64 124
-90 157 -106 141 -8 -8 8 -49 56 -141 40 -77 65 -136 61 -146 -13 -34 -663
-341 -992 -470 -77 -30 -198 -77 -270 -104 -254 -99 -769 -262 -850 -269 l-50
-5 -28 61 c-32 68 -142 184 -215 227 -115 68 -201 -47 -189 -251 4 -50 9 -105
13 -122 5 -29 3 -33 -28 -43 -18 -6 -107 -26 -197 -45 -154 -32 -194 -46 -178
-63 4 -4 96 12 205 35 108 23 205 42 214 42 17 0 128 -148 128 -170 0 -19 -31
-66 -52 -79 -11 -7 -97 -32 -191 -57 -94 -24 -176 -49 -181 -54 -23 -23 30
-19 145 11 68 17 137 34 153 37 27 4 28 3 22 -22 -4 -15 -26 -71 -50 -124 -24
-53 -46 -108 -49 -122 -10 -39 -18 -46 -80 -74 -36 -16 -57 -31 -54 -38 2 -7
10 -12 17 -10 6 1 32 5 56 9 39 5 44 4 44 -14 0 -28 25 -87 66 -154 40 -66 41
-80 13 -98 -31 -18 -6 -32 43 -24 33 5 47 0 102 -36 88 -58 152 -80 254 -89
l87 -8 -85 -40 c-47 -22 -122 -55 -167 -73 -97 -39 -122 -55 -108 -70 11 -11
231 75 519 203 82 36 157 66 166 66 21 0 85 -68 137 -145 34 -52 38 -65 38
-119 -1 -74 -32 -128 -104 -180 -99 -71 -200 -75 -125 -5 109 102 40 237 -110
215 -55 -9 -99 -43 -128 -99 -48 -96 20 -205 140 -223 164 -25 363 116 388
274 8 51 -15 103 -97 221 -33 49 -58 94 -54 101 4 6 128 72 277 146 432 216
901 484 1261 720 87 57 159 104 161 104 2 0 15 -18 29 -39 103 -156 417 51
417 274 l0 61 163 131 c89 72 229 188 312 259 82 71 183 157 225 192 138 117
334 299 467 436 73 75 137 136 142 136 12 0 55 -93 75 -165 36 -124 120 -383
153 -468 40 -104 41 -100 -61 -201 -100 -99 -315 -344 -316 -359 0 -5 5 -5 12
-1 7 4 8 3 4 -5 -4 -6 -11 -9 -15 -7 -12 8 -114 -103 -174 -189 -117 -169
-633 -712 -1004 -1057 -153 -142 -184 -178 -154 -178 35 0 791 771 1099 1120
123 140 228 256 232 258 7 3 70 -148 70 -168 0 -4 -44 -59 -97 -122 -54 -63
-123 -145 -153 -183 -181 -225 -487 -560 -787 -865 -183 -185 -241 -253 -205
-238 38 14 882 936 991 1081 82 111 244 288 260 285 13 -3 61 -118 61 -149 0
-9 -59 -92 -130 -185 -72 -93 -152 -198 -178 -233 -26 -36 -83 -106 -128 -155
-44 -50 -100 -118 -124 -151 -24 -33 -156 -187 -293 -343 -137 -156 -246 -286
-244 -289 6 -6 502 558 560 637 22 30 68 87 101 125 34 39 96 116 139 170 42
55 93 120 112 145 20 25 60 77 89 115 69 91 103 122 117 108 5 -5 21 -42 35
-81 l25 -72 -42 -63 c-37 -55 -197 -273 -268 -366 -14 -18 -35 -46 -46 -61
-28 -38 -153 -200 -224 -290 -58 -74 -183 -201 -230 -233 -14 -9 -22 -20 -18
-23 3 -4 19 2 34 12 15 10 31 18 34 17 10 -3 202 213 307 346 51 64 167 220
259 346 92 127 175 241 185 254 l18 24 12 -31 c19 -49 30 -38 23 21 l-7 52 79
110 c43 61 143 201 222 313 78 111 143 202 144 202 1 0 56 -53 122 -118 170
-167 307 -259 494 -329 254 -96 620 -111 910 -37 136 34 578 188 690 240 51
24 97 42 101 39 5 -3 37 -43 71 -90 38 -51 69 -83 76 -80 10 3 799 562 888
628 19 14 17 20 -59 190 l-78 176 72 83 c191 220 322 433 415 678 105 274 112
679 18 959 -50 150 -146 313 -271 461 -40 46 -72 87 -72 90 0 10 -192 174
-270 232 -84 61 -193 131 -319 204 -117 67 -226 149 -291 221 -47 51 -59 72
-79 137 -23 82 -49 116 -100 134 -22 8 -35 5 -72 -17 -25 -15 -59 -26 -79 -26
-32 0 -37 -4 -65 -56 -16 -31 -40 -69 -53 -84 -22 -28 -22 -28 -120 -23 -162
9 -331 84 -510 227 -88 70 -267 254 -355 364 -66 83 -137 206 -161 281 -14 41
-35 89 -48 107 -21 28 -23 41 -23 144 0 106 2 115 24 139 15 16 37 26 60 28
28 2 39 9 49 31 8 16 21 27 33 27 10 0 19 7 19 15 0 9 11 20 25 25 14 5 25 17
25 27 -1 33 -67 109 -122 140 -107 61 -167 155 -308 488 -39 94 -90 203 -113
244 -91 167 -276 375 -429 485 -181 129 -423 215 -660 236 -55 4 -104 12 -108
17 -5 4 -53 154 -108 333 -194 630 -335 1116 -513 1760 -71 255 -84 303 -114
400 -14 47 -43 155 -65 240 -21 85 -68 267 -105 404 -37 138 -120 462 -185
720 l-118 471 -36 3 c-29 3 -36 0 -36 -14 0 -32 245 -1026 300 -1219 11 -38
58 -218 105 -400 211 -817 432 -1606 673 -2405 49 -162 88 -298 85 -302 -2 -5
-18 -8 -34 -8 -39 0 -43 11 -109 270 -65 260 -88 339 -151 515 -15 44 -74 242
-130 440 -233 826 -287 1014 -399 1380 -49 160 -107 355 -129 435 -22 80 -62
210 -89 290 -64 188 -104 320 -137 450 -45 177 -135 493 -152 533 -15 34 -20
37 -55 37 -21 0 -38 -3 -38 -6z m-3311 -4765 c31 -34 47 -143 32 -230 -13 -81
-25 -109 -46 -109 -8 0 -39 16 -69 35 -30 19 -60 35 -66 35 -37 0 8 189 60
253 36 42 60 47 89 16z m-99 -345 c80 -52 78 -49 51 -100 -22 -41 -94 -114
-112 -114 -3 0 -9 14 -13 31 -8 40 -8 204 0 212 8 8 32 -2 74 -29z m270 -160
c36 -19 192 -98 347 -175 156 -77 286 -146 290 -152 4 -7 11 -48 15 -92 3 -44
10 -115 14 -157 6 -68 5 -78 -9 -78 -70 0 -759 303 -836 368 -21 17 -21 17 18
112 21 52 44 121 51 153 9 40 18 57 29 57 9 0 45 -16 81 -36z m1606 -290 c129
-72 201 -160 217 -266 8 -50 -4 -49 -83 10 -36 26 -100 70 -143 96 -52 32 -91
65 -117 100 -37 49 -70 113 -70 136 0 14 116 -31 196 -76z m-1609 -137 c126
-57 327 -143 448 -192 121 -48 225 -94 231 -101 11 -13 47 -314 39 -322 -24
-24 -693 212 -901 317 l-82 41 -11 63 c-7 34 -14 103 -18 152 -5 87 -4 91 20
118 14 15 31 27 36 27 6 0 113 -47 238 -103z m815 39 c150 -57 272 -97 447
-145 79 -21 150 -46 158 -54 14 -13 53 -271 43 -281 -25 -23 -717 159 -749
198 -9 11 -41 247 -41 309 0 25 15 22 142 -27z m-1162 -62 c6 -15 13 -66 17
-115 5 -78 4 -89 -10 -89 -25 0 -159 61 -182 82 -20 19 -20 20 20 54 47 41
125 94 137 94 5 0 13 -12 18 -26z m1887 -103 c23 -13 8 -14 -39 0 -21 5 -38
14 -38 19 0 10 48 -2 77 -19z m1143 -17 c0 -9 -6 -42 -14 -73 -8 -31 -20 -89
-26 -128 -7 -40 -13 -73 -14 -73 -1 0 -44 -9 -96 -21 -52 -11 -104 -18 -116
-15 -12 3 -34 26 -48 51 -34 58 -42 58 -14 0 27 -55 21 -63 -58 -74 -88 -14
-337 -23 -351 -13 -7 4 -16 44 -21 88 -6 47 -18 97 -32 123 -18 35 -19 45 -8
52 16 11 263 10 338 0 38 -6 61 -4 75 4 11 7 70 22 130 34 61 12 137 30 170
40 76 24 85 25 85 5z m-983 -55 c42 -8 65 -21 108 -61 62 -57 80 -91 90 -172
l7 -56 -63 0 c-58 0 -319 26 -325 33 -7 7 -44 278 -40 286 5 8 109 -6 223 -30z
m-2144 -33 c31 -14 57 -29 57 -34 0 -4 -19 -26 -41 -47 -53 -51 -71 -93 -78
-180 -6 -69 -6 -70 -34 -68 -50 3 -136 49 -142 76 -14 56 37 235 81 282 22 23
24 24 61 11 21 -8 64 -26 96 -40z m1307 -110 c100 -29 235 -62 540 -134 l75
-17 8 -40 c24 -116 22 -120 -36 -104 -48 13 -156 -18 -217 -62 -39 -28 -48
-31 -94 -25 -94 11 -370 85 -382 101 -13 18 -22 81 -33 221 -6 81 -4 94 9 94
8 0 67 -15 130 -34z m-727 -135 c89 -32 230 -80 312 -105 278 -87 275 -86 280
-109 3 -12 12 -75 21 -140 17 -135 13 -150 -39 -140 -108 19 -590 153 -605
168 -3 3 -16 48 -29 100 -12 52 -37 125 -55 162 -55 115 -58 123 -52 123 3 0
79 -26 167 -59z m2499 -114 c6 -125 -1 -140 -61 -135 -34 3 -38 8 -88 98 -29
52 -52 104 -50 115 2 16 18 23 92 40 80 19 91 19 96 6 4 -9 8 -65 11 -124z
m-2914 93 c6 -16 14 -61 18 -100 6 -67 6 -70 -14 -70 -33 0 -129 46 -140 67
-14 25 7 72 47 106 44 37 76 36 89 -3z m154 -61 c44 -44 108 -155 108 -187 0
-28 -160 30 -178 65 -13 23 -34 172 -26 184 8 14 42 -8 96 -62z m1916 41 c57
-4 105 -10 108 -12 2 -3 -3 -30 -11 -62 -18 -70 -18 -71 0 -56 8 7 22 36 30
65 l15 51 224 14 c123 7 231 10 240 7 9 -4 40 -54 68 -113 48 -98 51 -107 35
-119 -17 -13 -116 -28 -295 -45 -110 -11 -574 -12 -612 -1 -19 5 -26 16 -31
46 -6 37 -24 148 -35 219 l-4 29 82 -7 c46 -4 129 -11 186 -16z m-2336 -95
c26 -13 47 -36 75 -84 47 -81 106 -157 134 -171 33 -18 32 -6 -4 41 -60 78
-94 159 -66 159 24 0 160 -63 168 -79 11 -20 51 -225 51 -260 0 -23 -2 -24
-52 -18 -100 12 -227 93 -315 200 -51 62 -103 165 -110 218 l-6 39 44 -14 c24
-7 60 -21 81 -31z m1480 -104 c73 -17 150 -33 171 -37 20 -3 37 -9 37 -12 0
-3 -12 -35 -26 -70 -30 -76 -27 -116 14 -154 44 -40 100 -53 163 -38 101 24
172 73 231 159 l31 44 196 -7 c210 -7 413 3 601 31 63 9 133 17 155 17 39 1
39 1 87 -84 54 -97 59 -126 25 -139 -21 -8 -113 -26 -377 -73 -53 -9 -180 -13
-440 -13 -344 0 -377 2 -564 28 -201 28 -331 50 -398 68 -29 7 -39 16 -47 42
-11 37 -31 185 -31 234 0 41 1 42 172 4z m-1023 -67 c90 -33 94 -39 81 -100
-14 -60 -41 -106 -75 -124 -22 -12 -28 -12 -40 1 -13 13 -55 192 -55 234 0 20
8 19 89 -11z m336 -108 c66 -19 206 -55 310 -81 105 -25 196 -52 203 -59 11
-11 52 -221 52 -268 0 -14 -8 -18 -38 -18 -84 0 -786 161 -853 196 -16 8 -29
19 -29 24 0 5 30 27 68 49 72 42 100 79 122 159 8 33 15 42 28 38 9 -3 71 -21
137 -40z m3805 -1215 c0 -12 -190 -135 -197 -127 -10 9 17 63 46 90 16 15 41
31 57 36 39 11 94 12 94 1z m130 -36 c25 -13 54 -30 64 -38 19 -14 18 -15 -20
-39 -21 -14 -95 -61 -164 -105 -145 -94 -509 -313 -519 -313 -23 1 -95 127
-86 152 3 7 47 34 98 60 181 93 349 188 445 252 105 71 104 70 182 31z m-495
-58 c4 -22 17 -33 57 -50 l52 -23 -166 -87 c-92 -48 -176 -87 -187 -87 -14 0
-28 17 -52 65 -17 35 -29 71 -26 79 4 9 29 28 57 43 28 16 95 53 148 83 l97
56 7 -26 c4 -14 10 -38 13 -53z m-680 -106 c18 -57 25 -95 19 -100 -27 -27
-657 -221 -716 -221 -25 0 -44 39 -26 55 7 8 74 45 148 83 74 39 225 117 335
175 110 58 202 104 205 102 3 -2 19 -44 35 -94z m1334 47 l51 -46 -109 -81
c-285 -210 -626 -431 -665 -431 -11 0 -76 142 -70 152 3 4 20 15 37 24 49 25
468 284 587 363 58 38 108 68 111 68 3 -1 29 -23 58 -49z m-969 -139 c19 -42
29 -74 23 -80 -5 -5 -62 -33 -128 -63 -122 -54 -145 -57 -145 -15 0 10 -4 20
-8 23 -14 8 -36 116 -26 125 5 4 32 16 59 26 28 10 77 31 109 46 40 19 64 25
71 19 7 -6 27 -42 45 -81z m1094 11 l47 -55 -23 -18 c-13 -10 -48 -35 -80 -55
-31 -20 -92 -64 -135 -96 -43 -33 -170 -123 -283 -199 -113 -77 -217 -151
-231 -164 -24 -22 -29 -23 -49 -11 -22 13 -70 96 -70 121 0 8 84 70 187 138
192 127 485 333 537 376 16 13 34 23 41 21 7 -2 34 -28 59 -58z m-1408 -81
c43 -133 43 -134 31 -146 -30 -29 -662 -243 -718 -243 -12 0 -69 184 -60 193
4 4 79 28 167 52 171 47 433 132 505 164 24 11 48 18 54 17 5 -1 15 -18 21
-37z m395 -94 c56 -100 60 -93 -102 -174 -78 -39 -146 -68 -150 -64 -13 14
-60 178 -52 181 4 2 60 27 123 57 63 29 123 53 134 52 11 -1 30 -22 47 -52z
m-3479 8 c33 -29 48 -69 48 -123 0 -78 -10 -90 -78 -90 -31 0 -81 3 -109 6
l-53 7 0 46 c0 59 28 119 71 155 27 23 39 27 67 22 19 -3 43 -13 54 -23z
m3169 -175 c21 -62 24 -79 14 -88 -68 -56 -694 -283 -718 -260 -14 13 -67 174
-59 182 4 3 129 47 277 96 149 50 302 104 340 121 104 45 113 42 146 -51z
m-866 32 c8 -16 15 -38 15 -49 0 -11 4 -22 9 -25 4 -3 11 -18 14 -33 3 -16 8
-35 12 -44 8 -20 -80 -47 -311 -94 -260 -54 -775 -125 -808 -112 -13 5 -56
156 -56 197 0 12 9 24 23 29 13 5 131 19 263 31 234 21 480 57 699 104 61 13
113 24 117 25 4 0 14 -12 23 -29z m1256 -30 c10 -14 25 -42 34 -62 14 -36 14
-38 -7 -58 -23 -21 -269 -150 -286 -150 -14 0 -66 160 -56 170 16 16 269 129
283 127 8 -1 22 -13 32 -27z m-3601 -76 c49 -10 48 -30 -6 -86 -85 -86 -101
-85 -130 7 -23 74 -17 85 49 85 30 0 69 -3 87 -6z m1090 -32 l85 -7 23 -80
c12 -44 21 -93 20 -110 -3 -29 -5 -30 -68 -39 -77 -10 -1025 -14 -1035 -4 -4
4 4 35 18 70 14 35 31 86 38 113 6 28 15 55 20 60 8 11 753 8 899 -3z m2170
-54 c6 -24 15 -51 20 -60 14 -25 13 -28 -14 -28 -65 0 -155 -52 -207 -119 -30
-39 -47 -49 -159 -92 -171 -67 -308 -112 -323 -106 -16 6 -61 167 -50 177 4 4
91 36 193 71 102 34 257 93 345 130 88 37 165 68 172 68 7 1 17 -18 23 -41z
m463 -78 l15 -39 -37 -24 c-97 -64 -388 -213 -397 -204 -3 2 7 24 21 48 19 34
25 58 25 105 l0 60 152 78 153 78 26 -32 c15 -17 33 -49 42 -70z m-1290 -5
c38 -119 38 -125 11 -136 -39 -14 -507 -125 -629 -149 -154 -29 -368 -60 -420
-60 -55 0 -66 14 -95 129 -17 68 -19 86 -8 92 7 5 16 9 20 9 34 1 310 35 408
50 155 25 452 84 545 109 39 10 88 18 110 17 39 -1 39 -1 58 -61z m-1185 -152
c6 -16 21 -66 32 -112 16 -65 18 -86 9 -92 -68 -41 -1163 -83 -1201 -46 -7 8
-31 53 -52 100 l-39 87 27 35 27 35 422 1 c232 1 467 5 522 9 55 3 132 7 171
8 69 2 72 1 82 -25z m1249 -48 c8 -22 21 -61 28 -88 13 -47 13 -48 -13 -61
-91 -47 -764 -208 -1050 -251 -41 -7 -43 -6 -58 30 -28 68 -49 164 -38 175 5
5 84 22 174 36 218 34 459 84 710 149 113 29 211 52 219 51 8 0 21 -19 28 -41z
m523 -51 c0 -34 6 -51 25 -69 13 -14 31 -25 40 -25 31 0 13 -18 -42 -43 -75
-34 -238 -98 -336 -133 -89 -31 -97 -28 -97 39 0 21 -7 54 -15 74 -20 48 -16
52 118 98 59 20 149 54 200 74 51 21 95 36 100 34 4 -2 7 -24 7 -49z m1933
-71 l6 -61 -142 -124 c-218 -191 -576 -488 -587 -488 -14 0 -61 97 -54 114 3
8 33 36 67 62 80 63 441 365 582 487 69 61 112 91 116 84 4 -7 9 -40 12 -74z
m-4971 11 c14 -27 28 -60 30 -74 l3 -25 -122 0 c-67 0 -124 3 -128 7 -14 14
18 49 91 98 42 28 82 49 88 47 6 -2 23 -26 38 -53z m2568 -74 c0 -5 -14 -10
-31 -10 -17 0 -28 4 -24 10 3 6 17 10 31 10 13 0 24 -4 24 -10z m-1221 -58 c6
-20 17 -59 26 -87 23 -78 22 -82 -37 -94 -85 -16 -630 -71 -704 -71 -18 0 -29
11 -45 43 -12 23 -56 75 -97 114 -42 40 -72 76 -68 80 4 4 132 13 284 19 251
11 580 38 590 49 12 12 42 -20 51 -53z m1059 -2 c-57 -49 -94 -111 -103 -173
-6 -40 -11 -48 -34 -53 -14 -3 -53 -14 -86 -25 -85 -26 -561 -139 -616 -146
-41 -5 -49 -3 -62 18 -16 24 -62 178 -55 184 1 2 108 24 237 49 212 42 589
133 701 170 67 22 69 19 18 -24z m2557 -27 c-14 -74 -60 -156 -116 -208 -54
-49 -80 -62 -168 -85 l-43 -11 6 -57 6 -57 -161 -138 c-93 -81 -165 -137 -173
-134 -8 3 -24 31 -35 63 -26 68 -33 58 117 182 56 47 102 89 102 93 0 5 5 9
11 9 12 0 69 47 190 158 147 133 251 222 261 222 6 0 7 -15 3 -37z m-5031 21
c23 -9 20 -18 -21 -76 -34 -47 -37 -58 -38 -117 l0 -66 -80 -3 c-44 -1 -86 2
-93 6 -33 21 -33 143 -1 205 27 53 37 57 130 57 48 0 94 -3 103 -6z m372 -129
c85 -29 141 -62 150 -89 9 -28 -13 -36 -106 -36 l-85 0 -34 60 c-31 58 -35 90
-11 90 7 0 45 -11 86 -25z m-142 -58 c19 -38 26 -61 19 -68 -5 -5 -49 -9 -99
-7 l-89 3 2 30 c3 42 73 107 111 103 22 -2 33 -14 56 -61z m1233 -15 c13 -8
56 -116 67 -169 7 -30 5 -32 -31 -43 -131 -37 -983 -144 -1001 -125 -7 7 30
42 101 100 25 20 46 50 62 89 13 33 30 63 37 67 8 4 95 15 194 24 209 19 506
54 513 60 7 8 45 5 58 -3z m-1429 -139 c84 -59 139 -85 175 -81 31 3 29 5 -36
37 -70 35 -97 63 -75 77 20 13 163 17 184 6 11 -6 41 -51 67 -101 l48 -90 -23
-12 c-35 -20 -220 -16 -298 5 -100 27 -189 74 -242 127 -26 26 -48 52 -48 58
0 14 44 20 123 16 62 -2 75 -7 125 -42z m532 9 c0 -44 -40 -113 -77 -133 -19
-10 -26 -10 -42 5 -25 23 -84 143 -76 156 3 6 48 10 101 10 l94 0 0 -38z
m4203 -134 c12 -6 37 -22 55 -36 l32 -25 -61 -55 c-146 -132 -333 -292 -341
-292 -11 0 -60 108 -56 125 4 14 326 295 340 295 5 0 19 -5 31 -12z m-511 -53
c21 -39 24 -53 15 -64 -35 -42 -513 -385 -703 -504 -120 -76 -223 -139 -229
-140 -12 -3 -96 146 -87 155 4 4 83 48 176 98 265 143 550 329 721 469 28 22
57 39 65 38 8 -1 27 -25 42 -52z m663 -61 l28 -36 -44 -43 c-219 -212 -381
-365 -388 -365 -13 0 -43 68 -45 101 -1 25 24 50 199 203 110 96 205 175 211
176 7 0 24 -16 39 -36z m-598 -88 c42 -87 57 -69 -257 -310 -261 -201 -611
-426 -643 -413 -14 5 -74 114 -67 120 3 2 70 48 150 102 186 127 513 359 660
469 63 47 118 86 122 86 5 0 20 -24 35 -54z m72 -165 c11 -27 21 -56 21 -64 0
-45 -829 -687 -886 -687 -6 0 -28 32 -49 72 l-38 72 28 22 c15 12 108 73 207
135 197 126 361 245 543 397 66 55 127 101 136 101 11 1 24 -17 38 -48z m68
-171 l23 -55 -63 -59 c-148 -139 -333 -300 -443 -388 -160 -127 -347 -268
-355 -268 -8 0 -79 133 -79 148 0 6 27 27 61 47 103 63 364 263 589 453 118
100 222 180 230 179 8 -1 25 -27 37 -57z m-1245 -117 c9 -10 28 -42 43 -72 26
-52 26 -54 8 -72 -67 -65 -930 -500 -1101 -555 l-43 -13 -19 31 c-10 17 -29
58 -41 90 -19 51 -20 61 -8 72 8 7 66 35 129 61 270 111 501 217 745 341 143
73 263 133 266 133 3 1 13 -7 21 -16z m123 -224 c44 -75 44 -98 2 -125 -106
-70 -181 -117 -252 -156 -309 -173 -398 -220 -608 -324 -145 -72 -242 -114
-252 -110 -18 6 -85 144 -85 174 0 19 54 47 380 197 162 75 494 249 685 359
44 25 83 46 87 46 4 0 23 -27 43 -61z m1920 -126 c33 -72 35 -67 -121 -253
-48 -58 -121 -148 -207 -259 -15 -20 -31 -35 -35 -34 -4 2 -21 34 -39 72 l-31
70 66 76 c37 42 89 104 116 138 87 110 207 247 216 247 5 0 20 -26 35 -57z
m-1820 -58 c20 -36 35 -76 33 -88 -2 -16 -39 -45 -133 -105 -408 -260 -955
-572 -1003 -572 -14 0 -29 21 -56 80 -21 43 -36 87 -34 96 2 10 45 39 103 69
561 291 677 355 918 507 67 42 125 77 129 77 3 1 23 -28 43 -64z m1915 -103
l28 -46 -31 -42 c-50 -67 -75 -104 -120 -175 -23 -36 -55 -81 -70 -100 -46
-57 -111 -142 -137 -181 -26 -40 -48 -54 -62 -40 -4 4 -19 39 -32 78 l-24 71
92 120 c164 216 303 376 318 367 5 -3 22 -27 38 -52z m-1835 -52 c21 -41 19
-50 -12 -50 -97 0 -255 -141 -294 -261 -28 -87 -30 -89 -163 -176 -157 -103
-506 -314 -571 -345 -46 -22 -47 -22 -61 -4 -7 10 -27 53 -45 94 -30 72 -30
75 -12 93 10 9 113 70 228 134 284 159 539 314 870 531 31 20 43 17 60 -16z
m-1499 -12 c17 -34 54 -135 54 -150 0 -23 -359 -164 -760 -299 -146 -49 -276
-89 -289 -89 -20 0 -23 3 -17 28 4 15 11 61 17 102 20 140 15 132 99 158 140
43 655 214 745 247 115 43 130 43 151 3z m3422 -53 l43 -55 -27 -42 c-15 -24
-27 -48 -27 -55 0 -6 -5 -11 -10 -10 -5 1 -12 -4 -15 -12 -3 -9 0 -11 9 -6 8
4 -3 -8 -23 -27 -20 -18 -61 -71 -92 -118 -145 -225 -236 -352 -250 -347 -17
5 -45 69 -52 120 -7 51 -7 50 83 174 64 87 218 304 262 371 24 34 46 62 49 61
4 0 26 -25 50 -54z m-508 31 c0 -2 -8 -10 -17 -17 -16 -13 -17 -12 -4 4 13 16
21 21 21 13z m-4053 -79 c27 -27 49 -104 39 -140 -5 -22 -17 -30 -72 -47 -148
-45 -171 -38 -160 52 17 134 121 207 193 135z m2681 1 c-3 -25 -210 -186 -216
-169 -5 14 34 67 97 134 46 47 61 57 89 57 29 0 33 -3 30 -22z m1322 19 c0 -2
-10 -12 -22 -23 l-23 -19 19 23 c18 21 26 27 26 19z m-1335 -109 c-35 -114
-177 -283 -233 -276 -24 3 -27 7 -30 50 -3 43 0 50 35 83 42 40 213 164 226
165 5 0 5 -10 2 -22z m-1417 -80 c18 -37 35 -82 39 -100 l5 -34 -114 -52
c-159 -72 -475 -203 -648 -269 -158 -60 -158 -60 -277 -96 l-83 -25 -33 37
c-95 106 -105 137 -59 188 23 26 58 41 217 93 178 58 697 248 830 304 33 14
67 24 75 23 8 -1 30 -32 48 -69z m-1243 -59 c9 -14 -50 -131 -80 -159 l-23
-22 -36 53 c-38 56 -44 83 -24 95 14 9 126 42 145 43 6 1 15 -4 18 -10z m1318
-127 c21 -23 67 -134 67 -161 0 -23 -199 -127 -508 -265 l-192 -86 -63 64
c-44 44 -75 67 -102 75 -71 19 -73 27 -19 54 27 14 159 71 294 127 135 56 297
126 360 155 63 29 122 53 131 54 9 1 23 -7 32 -17z m134 -289 c57 -123 56
-125 -62 -190 -131 -72 -804 -413 -816 -413 -18 0 -8 26 35 87 44 63 70 132
81 213 l5 45 213 99 c116 55 273 130 347 168 74 37 141 68 148 68 7 0 29 -35
49 -77z m-1403 -50 c25 -32 46 -63 46 -69 0 -14 -5 -16 -119 -55 -96 -33 -111
-35 -111 -15 0 18 119 196 130 196 5 0 29 -26 54 -57z m-24 -167 c0 -7 -7 -31
-16 -52 -15 -36 -17 -151 -3 -204 5 -18 -93 -69 -133 -70 -32 0 -52 30 -63 98
-8 52 1 143 18 166 14 19 142 74 175 75 12 1 22 -5 22 -13z m474 -14 c25 -12
46 -27 46 -35 0 -14 -90 -60 -150 -77 -24 -7 -32 -3 -57 23 -33 36 -63 78 -63
89 0 14 66 27 121 24 31 -2 77 -13 103 -24z m-230 -100 c15 -22 26 -45 22 -50
-10 -17 -143 -65 -160 -59 -33 13 -10 104 39 153 24 24 28 25 48 11 12 -8 35
-32 51 -55z m324 -39 c5 -73 -36 -174 -71 -173 -13 1 -101 113 -113 143 -5 14
7 23 57 47 36 16 77 29 94 27 28 -2 30 -5 33 -44z m-200 -110 c69 -81 78 -100
57 -123 -8 -9 -48 -32 -88 -51 -66 -31 -82 -34 -185 -37 -87 -3 -124 0 -165
13 -59 19 -117 59 -117 81 0 16 55 42 131 63 42 12 48 11 84 -10 31 -18 54
-23 113 -24 52 0 76 4 79 13 3 8 -8 12 -34 13 -50 1 -107 22 -111 41 -2 10 20
25 65 46 98 45 112 43 171 -25z"/>
</g>
</svg>
